# File produced by Open Asset Import Library (http://www.assimp.sf.net)
# (assimp v4.1.0)

mtllib Append.mtl

# 12 vertex positions
v  0.1475670039653778 -6.399999983841553e-05 0.02252200059592724
v  0.1475670039653778 -6.399999983841553e-05 0.01998200081288815
v  0.1450269967317581 -6.399999983841553e-05 0.02252200059592724
v  0.1450269967317581 -6.399999983841553e-05 0.01998200081288815
v  -1.870019912719727 5.801567077636719 0
v  -1.870019912719727 -4.198432922363281 0
v  -1.870019912719727 5.801567077636719 10
v  -1.870019912719727 -4.198432922363281 10
v  -1.620019912719727 5.801567077636719 10
v  -1.620019912719727 -4.198432922363281 10
v  -1.620019912719727 5.801567077636719 0
v  -1.620019912719727 -4.198432922363281 0

# 12 UV coordinates
vt 0.1270000040531158 0.1270000040531158 0
vt -0.1270000040531158 0.1270000040531158 0
vt 0.1270000040531158 -0.1270000040531158 0
vt -0.1270000040531158 -0.1270000040531158 0
vt 0 0 0
vt 1000 0 0
vt 0 1000 0
vt 1000 1000 0
vt -1000 1000 0
vt -1000 0 0
vt 25 0 0
vt 25 1000 0

# 6 vertex normals
vn 0 100 0
vn 0 -100 0
vn -100 0 0
vn 100 0 0
vn 0 0 -100
vn 0 0 100

# Mesh 'BaseModel.dwg' with 4 faces
g BaseModel.dwg
usemtl Default_Wall
f  1/1/1 2/2/1 3/3/1
f  3/3/1 2/2/1 4/4/1
f  3/4/2 4/3/2 1/2/2
f  1/2/2 4/3/2 2/1/2

# Mesh 'BaseModel.dwg (2)' with 4 faces
g BaseModel.dwg (2)
usemtl Default_Wall
f  1/1/1 2/2/1 3/3/1
f  3/3/1 2/2/1 4/4/1
f  3/4/2 4/3/2 1/2/2
f  1/2/2 4/3/2 2/1/2

# Mesh 'Generic - 200mm' with 12 faces
g Generic - 200mm
usemtl Default_Wall
f  5/5/3 6/6/3 7/7/3
f  7/7/3 6/6/3 8/8/3
f  9/7/4 10/9/4 11/5/4
f  11/5/4 10/9/4 12/10/4
f  5/5/5 11/11/5 6/7/5
f  6/7/5 11/11/5 12/12/5
f  6/5/2 12/11/2 8/7/2
f  8/7/2 12/11/2 10/12/2
f  8/5/6 10/11/6 7/7/6
f  7/7/6 10/11/6 9/12/6
f  7/5/1 9/11/1 5/7/1
f  5/7/1 9/11/1 11/12/1

